<?xml version="1.0" standalone="no"?>
<!DOCTYPE svg PUBLIC "-//W3C//DTD SVG 20010904//EN"
 "http://www.w3.org/TR/2001/REC-SVG-20010904/DTD/svg10.dtd">
<svg version="1.0" xmlns="http://www.w3.org/2000/svg"
 width="512.000000pt" height="512.000000pt" viewBox="0 0 512.000000 512.000000"
 preserveAspectRatio="xMidYMid meet">
<metadata>
Created by potrace 1.14, written by Peter Selinger 2001-2017
</metadata>
<g transform="translate(0.000000,512.000000) scale(0.100000,-0.100000)"
fill="#000000" stroke="none">
<path d="M1969 4224 c-519 -82 -912 -469 -1003 -986 -16 -94 -15 -306 3 -406
43 -236 156 -449 335 -628 194 -194 402 -298 674 -339 78 -11 282 -13 327 -2
11 2 40 8 65 12 142 24 332 105 462 198 l76 55 52 -53 52 -53 -31 -42 c-35
-48 -39 -84 -14 -120 31 -47 858 -870 888 -884 17 -8 39 -13 50 -11 11 2 25 4
32 4 16 1 273 261 283 286 6 17 6 33 1 77 -2 12 -893 898 -905 899 -6 0 -20 2
-31 4 -25 5 -83 -23 -98 -47 -7 -10 -16 -18 -22 -18 -5 0 -33 23 -62 52 -52
51 -52 52 -34 73 39 42 113 159 150 238 165 347 151 758 -36 1097 -174 314
-507 542 -868 595 -82 13 -265 12 -346 -1z m331 -204 c243 -38 473 -176 626
-375 143 -187 207 -385 200 -620 -4 -127 -6 -148 -27 -230 -56 -222 -217 -446
-409 -570 -228 -148 -438 -191 -732 -151 -54 8 -180 52 -262 92 -224 109 -414
331 -490 572 -148 470 51 956 486 1185 86 45 225 89 313 100 65 8 234 6 295
-3z m1333 -2386 l346 -346 -42 -39 -42 -39 -349 349 -349 349 33 36 c18 20 39
36 46 36 6 0 167 -156 357 -346z"/>
</g>
</svg>
